<?xml version="1.0" encoding="UTF-8"?>
<svg id="Capa_1" data-name="Capa 1" xmlns="http://www.w3.org/2000/svg" viewBox="0 0 100 100">
  <defs>
    <style>
      .cls-1 {
        fill: #8bc47c;
      }
    </style>
  </defs>
  <path class="cls-1" d="m49.47,8.52c-22.68.19-40.97,18.63-40.97,41.32,0,22.82,18.49,41.32,41.31,41.32h0c22.82,0,41.32-18.5,41.32-41.32h0c0-22.82-18.5-41.32-41.32-41.32-.12,0-.23,0-.35,0Zm.35,18.76c3.07,0,5.9.55,8.51,1.66,2.64,1.11,4.93,2.65,6.84,4.6,1.92,1.92,3.41,4.2,4.49,6.84,1.11,2.61,1.66,5.4,1.66,8.39s-.55,5.81-1.66,8.45c-1.07,2.61-2.57,4.89-4.49,6.84-1.92,1.92-4.2,3.43-6.84,4.54-2.61,1.11-5.44,1.66-8.51,1.66s-5.92-.55-8.57-1.66c-2.61-1.11-4.87-2.62-6.79-4.54-1.92-1.95-3.43-4.24-4.54-6.84-1.07-2.64-1.61-5.46-1.61-8.45s.53-5.79,1.61-8.39c1.11-2.64,2.62-4.93,4.54-6.84,1.92-1.96,4.18-3.49,6.79-4.6,2.64-1.11,5.5-1.66,8.57-1.66m0,7.36c-1.92,0-3.72.35-5.4,1.04-1.65.69-3.11,1.65-4.37,2.88-1.23,1.23-2.2,2.71-2.93,4.48-.69,1.72-1.03,3.65-1.03,5.75s.34,4.04,1.03,5.8c.73,1.72,1.71,3.2,2.93,4.43,1.26,1.23,2.72,2.18,4.37,2.87,1.69.69,3.49,1.04,5.4,1.04s3.7-.35,5.35-1.04c1.69-.69,3.14-1.64,4.37-2.87,1.26-1.23,2.24-2.7,2.93-4.43.73-1.76,1.09-3.7,1.09-5.8s-.36-4.03-1.09-5.75c-.69-1.76-1.67-3.25-2.93-4.48-1.23-1.23-2.68-2.19-4.37-2.88-1.65-.69-3.43-1.04-5.35-1.04m17.83,33.91c.05,0,.1,0,.15,0,3.11,0,5.63,2.52,5.64,5.64,0,3.11-2.52,5.64-5.63,5.64h0c-3.11,0-5.64-2.52-5.64-5.63h0c0-3.07,2.43-5.57,5.49-5.65h0Z"/>
</svg>